<?xml version="1.0" ?><svg height="256" viewBox="0 0 256 256" width="256" xmlns="http://www.w3.org/2000/svg"><title/><g id="milk-healthy-drink"><g><path d="M231.98,65.72a1.221,1.221,0,0,0-.06-.26,2.252,2.252,0,0,0-.08-.24.035.035,0,0,1-.01-.02c-.04-.08-.08-.17-.13-.25l-.05-.09L206,23.43V10a2.006,2.006,0,0,0-2-2H100a2.006,2.006,0,0,0-2,2V23.43L72.35,64.86l-.05.09c-.05.08-.09.17-.13.25a.035.035,0,0,1-.01.02,2.252,2.252,0,0,0-.08.24,1.221,1.221,0,0,0-.06.26A2.633,2.633,0,0,0,72,66v54H36a6,6,0,0,0-.49,11.98l-5.91,26.6-.01.01A1.955,1.955,0,0,0,29,160a1.765,1.765,0,0,0,.13.69l-.8,3.59A182.622,182.622,0,0,0,24,203.76V230a18.014,18.014,0,0,0,18,18H82a18.014,18.014,0,0,0,18-18v-2H230a2.006,2.006,0,0,0,2-2V66A2.633,2.633,0,0,0,231.98,65.72ZM228,110H180V68h48ZM118.14,126.72a1.994,1.994,0,0,1,3.72-1.44l1.77,4.56a10.814,10.814,0,0,0-2.86,1.62c-.2.02-.46.03-.78.04Zm21.21,11.44a6.913,6.913,0,0,1-.96-.37,2,2,0,0,0-2.66.97,1.94,1.94,0,0,0-.19.84,2.456,2.456,0,0,0,.02.28c.02.3.02.6.01.91l-.31,7.07a4.481,4.481,0,0,1-.07.64,4.31,4.31,0,0,1-1.01,2.05,1.979,1.979,0,0,0-.35,2.12.27.27,0,0,1,.05.11,1.53,1.53,0,0,1,.12.6v.99a1.63,1.63,0,0,1-1.63,1.63h-8.74a1.63,1.63,0,0,1-1.63-1.63v-.99a1.53,1.53,0,0,1,.12-.6.27.27,0,0,1,.05-.11,1.979,1.979,0,0,0-.35-2.12,4.247,4.247,0,0,1-1.08-2.68l-.31-7.08c-.01-.31-.01-.61.01-.91a2.456,2.456,0,0,0,.02-.28,1.94,1.94,0,0,0-.19-.84,2.009,2.009,0,0,0-2.66-.97,6.913,6.913,0,0,1-.96.37,2.741,2.741,0,0,1-2.33-.08c-.99-.63-1.6-2.19-1.94-3.76a22.854,22.854,0,0,0,5.21,1.08,18.417,18.417,0,0,0,4.28-.03,2.044,2.044,0,0,0,.97-.43c.05-.05.1-.09.14-.13a6.761,6.761,0,0,1,4.44-1.65h1.16a6.761,6.761,0,0,1,4.44,1.65c.04.04.09.08.14.13a2.044,2.044,0,0,0,.97.43,18.417,18.417,0,0,0,4.28.03,22.855,22.855,0,0,0,5.21-1.08c-.34,1.57-.95,3.13-1.94,3.76A2.708,2.708,0,0,1,139.35,138.16Zm-1.49-11.44-1.85,4.78c-.31-.01-.58-.02-.78-.04a10.814,10.814,0,0,0-2.86-1.62l1.77-4.56a1.994,1.994,0,0,1,3.72,1.44ZM176,110H76V68H176Zm50.41-46H181.59L204,27.8ZM101.11,26h99.3L176.89,64H77.59ZM34,126a2.006,2.006,0,0,1,2-2H88a2,2,0,0,1,0,4H36A2.006,2.006,0,0,1,34,126Zm5.6,6H84.4l5.77,26H33.83Zm57.6,40H176v52H100V203.76A181.857,181.857,0,0,0,97.2,172ZM228,224H180V172h48Z"/><path d="M178.73,49.41l4.68-4.68a2.006,2.006,0,0,0,.59-1.42V36.69a2.006,2.006,0,0,0-.59-1.42l-4.68-4.68a2.006,2.006,0,0,0-1.42-.59h-6.62a2.006,2.006,0,0,0-1.42.59l-4.68,4.68a2.006,2.006,0,0,0-.59,1.42v6.62a2.006,2.006,0,0,0,.59,1.42l4.68,4.68a2.006,2.006,0,0,0,1.42.59h6.62A2.006,2.006,0,0,0,178.73,49.41Z"/></g></g></svg>