<?xml version="1.0" ?><svg id="Layer_1" style="enable-background:new 0 0 422.407 422.407;" version="1.1" viewBox="0 0 422.407 422.407" xml:space="preserve" xmlns="http://www.w3.org/2000/svg" xmlns:xlink="http://www.w3.org/1999/xlink"><g><path d="M295.608,101.78l22.382-3.946c0.276-0.049,0.541-0.132,0.801-0.224l88.11-15.535c4.232,0.223,8.287-1.385,11.188-4.493   c3.474-3.72,4.984-9.132,4.042-14.479c-1.542-8.751-9.546-15.6-19.464-16.656c-0.465-0.049-0.936-0.033-1.397,0.048l-99.139,17.481   v0L157.988,89.393c-7.747,1.366-12.939,8.78-11.573,16.529c0.055,0.314,0.126,0.625,0.19,0.938H135.96   c-19.547,0-35.449,15.902-35.449,35.449c0,5.688,1.384,11.28,3.968,16.283H91.888c-7.844,0-14.225,6.381-14.225,14.224v1.739   c0,7.843,6.381,14.224,14.225,14.224h8.003l21.907,82.536l-38.366-5.37c0.053-0.649,0.087-1.304,0.087-1.966   c0-13.201-10.74-23.941-23.941-23.941c-11.607,0-21.308,8.303-23.483,19.281l-30.402-4.255c-1.435-0.199-2.884,0.229-3.975,1.179   C0.627,257.192,0,258.568,0,260.015V350.8v20.188c0,2.761,2.238,5,5,5h186.723c2.762,0,5-2.239,5-5V350.8v-13.941h151.177   c2.268,0,4.251-1.526,4.833-3.717l5.136-19.349l0,0l28.956-109.096c0-0.001,0-0.002,0.001-0.003l4.224-15.914h8.004   c7.843,0,14.224-6.381,14.224-14.224v-1.739c0-7.843-6.381-14.224-14.224-14.224H382.8c-5.645-12.964-18.243-21.283-32.477-21.283   H196.821c0.839-0.813,1.638-1.668,2.394-2.56l83.635-14.747c3.384-0.597,6.333-2.476,8.304-5.291   c1.972-2.815,2.729-6.229,2.131-9.612C293.011,103.543,294.053,102.055,295.608,101.78z M349.189,307.509H196.723v-21.358   c0-2.494-1.837-4.606-4.307-4.952l-59.872-8.38l-17.095-64.406h260.042L349.189,307.509z M112.794,198.413l-2.555-9.626H380.7   l-2.555,9.626H112.794z M59.578,250.038c7.688,0,13.941,6.254,13.941,13.941c0,7.688-6.254,13.941-13.941,13.941   s-13.941-6.254-13.941-13.941C45.637,256.292,51.891,250.038,59.578,250.038z M10,265.764l26.273,3.677   c2.479,10.577,11.984,18.479,23.305,18.479c8.974,0,16.806-4.966,20.905-12.291l106.24,14.871v55.3H10V265.764z M186.723,365.988   H10V355.8h176.723V365.988z M196.723,326.858v-9.35h149.813l-2.482,9.35H196.723z M402.255,56.476   c4.473,0.696,9.206,3.696,10.029,8.363c0.394,2.235-0.183,4.502-1.504,5.917c-0.955,1.022-2.161,1.462-3.596,1.312   c-0.465-0.048-0.935-0.033-1.396,0.048l-84.625,14.921l-2.781-15.773L402.255,56.476z M403.276,172.815v1.739   c0,2.329-1.895,4.224-4.224,4.224H91.888c-2.329,0-4.225-1.895-4.225-4.224v-1.739c0-2.329,1.896-4.224,4.225-4.224h307.165   C401.382,168.591,403.276,170.486,403.276,172.815z M350.323,147.308c8.671,0,16.498,4.299,21.15,11.283H116.058l0.204-0.167   c-3.709-4.527-5.752-10.25-5.752-16.116c0-14.033,11.416-25.449,25.449-25.449h61.163c-2.33,11.646-12.635,20.449-24.956,20.449   c-2.762,0-5,2.239-5,5s2.238,5,5,5H350.323z M283.437,106.836c0.133,0.753-0.035,1.513-0.475,2.14   c-0.438,0.626-1.095,1.045-1.849,1.178l-75.458,13.305c1.264-3.637,1.961-7.537,1.961-11.599c0-2.761-2.238-5-5-5h-45.743   c-0.246-0.88-0.451-1.773-0.61-2.675c-0.408-2.317,1.145-4.536,3.462-4.944l148.81-26.239l2.782,15.772l-4.667,0.823l0.014,0.081   l-12.792,2.255C286.887,93.165,282.205,99.85,283.437,106.836z"/><path d="M245.47,299.515c31.478,0,57.086-18.703,57.086-41.692s-25.608-41.692-57.086-41.692s-57.086,18.703-57.086,41.692   S213.992,299.515,245.47,299.515z M245.47,226.131c25.963,0,47.086,14.217,47.086,31.692s-21.123,31.692-47.086,31.692   s-47.086-14.217-47.086-31.692S219.507,226.131,245.47,226.131z"/></g><g/><g/><g/><g/><g/><g/><g/><g/><g/><g/><g/><g/><g/><g/><g/></svg>