<svg width="48" height="48" viewBox="0 0 48 48" fill="none" xmlns="http://www.w3.org/2000/svg">
<path d="M16.5 41.25C16.086 41.25 15.75 41.586 15.75 42V43.5C15.75 43.914 16.086 44.25 16.5 44.25C16.914 44.25 17.25 43.914 17.25 43.5V42C17.25 41.586 16.914 41.25 16.5 41.25Z" fill="#87FB85"/>
<path d="M31.5 41.25C31.086 41.25 30.75 41.586 30.75 42V43.5C30.75 43.914 31.086 44.25 31.5 44.25C31.914 44.25 32.25 43.914 32.25 43.5V42C32.25 41.586 31.914 41.25 31.5 41.25Z" fill="#87FB85"/>
<path d="M34.5 15.75V6.75C34.497 5.09475 33.1553 3.753 31.5 3.75H16.5C14.8447 3.753 13.503 5.09475 13.5 6.75V15.75H34.5ZM17.25 8.25C17.25 7.836 17.586 7.5 18 7.5C18.414 7.5 18.75 7.836 18.75 8.25V12.75C18.75 13.164 18.414 13.5 18 13.5C17.586 13.5 17.25 13.164 17.25 12.75V8.25Z" fill="#87FB85"/>
<path d="M13.5 17.25V39.75C13.503 41.4053 14.8447 42.747 16.5 42.75H31.5C33.1553 42.747 34.497 41.4053 34.5 39.75V17.25H13.5ZM18.75 24.75C18.75 25.164 18.414 25.5 18 25.5C17.586 25.5 17.25 25.164 17.25 24.75V20.25C17.25 19.836 17.586 19.5 18 19.5C18.414 19.5 18.75 19.836 18.75 20.25V24.75Z" fill="#87FB85"/>
</svg>
